HIERARCHY
ROOT Hips
{
	OFFSET 0.000000 0.000000 0.000000
	CHANNELS 6 Xposition Yposition Zposition Xrotation Yrotation Zrotation
	JOINT LeftUpLeg_virtual
	{
		OFFSET 0.000000 0.000000 0.000000
		CHANNELS 3 Xrotation Yrotation Zrotation
		JOINT LeftUpLeg
		{
			OFFSET 13.026900 -6.336304 -1.092800
			CHANNELS 3 Xrotation Yrotation Zrotation
			JOINT LeftLeg
			{
				OFFSET 0.524474 -46.096886 9.782700
				CHANNELS 3 Xrotation Yrotation Zrotation
				JOINT LeftFoot
				{
					OFFSET -0.524474 -53.427422 -12.948200
					CHANNELS 3 Xrotation Yrotation Zrotation
					JOINT LeftToeBase
					{
						OFFSET 0.192200 -14.009700 16.364100
						CHANNELS 3 Xrotation Yrotation Zrotation
						JOINT LeftToe_End
						{
							OFFSET -1.784700 -0.561700 9.474800
							CHANNELS 3 Xrotation Yrotation Zrotation
							End Site
							{
								OFFSET 0 0 0
							}
						}
					}
				}
			}
		}
	}
	JOINT RightUpLeg_virtual
	{
		OFFSET 0.000000 0.000000 0.000000
		CHANNELS 3 Xrotation Yrotation Zrotation
		JOINT RightUpLeg
		{
			OFFSET -12.883000 -6.336304 -1.092800
			CHANNELS 3 Xrotation Yrotation Zrotation
			JOINT RightLeg
			{
				OFFSET -0.524587 -46.096825 9.782800
				CHANNELS 3 Xrotation Yrotation Zrotation
				JOINT RightFoot
				{
					OFFSET 0.524587 -53.427383 -12.948300
					CHANNELS 3 Xrotation Yrotation Zrotation
					JOINT RightToeBase
					{
						OFFSET -0.192200 -14.009700 16.364100
						CHANNELS 3 Xrotation Yrotation Zrotation
						JOINT RightToe_End
						{
							OFFSET 1.784700 -0.561700 9.474800
							CHANNELS 3 Xrotation Yrotation Zrotation
							End Site
							{
								OFFSET 0 0 0
							}
						}
					}
				}
			}
		}
	}
	JOINT Spine_virtual
	{
		OFFSET 0.000000 0.000000 0.000000
		CHANNELS 3 Xrotation Yrotation Zrotation
		JOINT Spine
		{
			OFFSET 0.072000 7.257294 -0.789700
			CHANNELS 3 Xrotation Yrotation Zrotation
			JOINT Spine1
			{
				OFFSET 0.000000 12.508769 -0.658067
				CHANNELS 3 Xrotation Yrotation Zrotation
				JOINT Spine1_split
				{
					OFFSET 0.000000 12.508769 -0.658067
					CHANNELS 3 Xrotation Yrotation Zrotation
					JOINT Spine2
					{
						OFFSET 0.000000 12.508769 -0.658067
						CHANNELS 3 Xrotation Yrotation Zrotation
						JOINT Neck_virtual
						{
							OFFSET 0.000000 0.000000 0.000000
							CHANNELS 3 Xrotation Yrotation Zrotation
							JOINT Neck
							{
								OFFSET 0.000000 14.033295 7.520400
								CHANNELS 3 Xrotation Yrotation Zrotation
								JOINT Head
								{
									OFFSET 0.000000 8.198502 5.703100
									CHANNELS 3 Xrotation Yrotation Zrotation
									JOINT HeadTop_End
									{
										OFFSET 0.000000 17.760803 13.332701
										CHANNELS 3 Xrotation Yrotation Zrotation
										End Site
										{
											OFFSET 0 0 0
										}
									}
								}
							}
						}
						JOINT LeftShoulder_virtual
						{
							OFFSET 0.000000 0.000000 0.000000
							CHANNELS 3 Xrotation Yrotation Zrotation
							JOINT LeftShoulder
							{
								OFFSET 6.292450 5.785301 -0.669000
								CHANNELS 3 Xrotation Yrotation Zrotation
								JOINT LeftShoulder_split
								{
									OFFSET 6.292450 5.785301 -0.669000
									CHANNELS 3 Xrotation Yrotation Zrotation
									JOINT LeftArm
									{
										OFFSET 13.907140 -6.093903 1.965100
										CHANNELS 3 Xrotation Yrotation Zrotation
										JOINT LeftForeArm
										{
											OFFSET 34.140198 0.000000 0.000000
											CHANNELS 3 Xrotation Yrotation Zrotation
											JOINT LeftHand
											{
												OFFSET 40.960209 0.000000 0.000000
												CHANNELS 3 Xrotation Yrotation Zrotation
												End Site
												{
													OFFSET 0 0 0
												}
											}
										}
									}
								}
							}
						}
						JOINT RightShoulder_virtual
						{
							OFFSET 0.000000 0.000000 0.000000
							CHANNELS 3 Xrotation Yrotation Zrotation
							JOINT RightShoulder
							{
								OFFSET -6.292450 5.785301 -0.669000
								CHANNELS 3 Xrotation Yrotation Zrotation
								JOINT RightShoulder_split
								{
									OFFSET -6.292450 5.785301 -0.669000
									CHANNELS 3 Xrotation Yrotation Zrotation
									JOINT RightArm
									{
										OFFSET -13.907140 -6.093903 1.965100
										CHANNELS 3 Xrotation Yrotation Zrotation
										JOINT RightForeArm
										{
											OFFSET -34.140198 0.000000 0.000000
											CHANNELS 3 Xrotation Yrotation Zrotation
											JOINT RightHand
											{
												OFFSET -40.960209 0.000000 0.000000
												CHANNELS 3 Xrotation Yrotation Zrotation
												End Site
												{
													OFFSET 0 0 0
												}
											}
										}
									}
								}
							}
						}
					}
				}
			}
		}
	}
}
MOTION
Frames: 5
Frame Time: 0.03333333
4.684319 100.414314 1.333927 0.000000 0.000000 0.000000 7.883425 -11.992283 1.770256 -49.610294 5.953226 18.806393 37.452195 5.411643 5.637861 6.172010 -0.141609 -17.194106 0.035308 0.543774 -0.498661 0.000000 0.000000 0.000000 7.306909 -11.990193 2.002981 -28.058595 -3.009210 -30.064232 31.421421 -1.181866 -1.401991 -6.510293 -4.923340 29.371623 -0.991226 0.546455 -0.061588 0.000000 0.000000 0.000000 8.679931 -10.465207 1.438800 8.037732 2.993382 -2.062844 6.271998 1.634028 -1.222646 0.459529 1.974940 0.373717 0.000000 0.000000 0.000000 6.416740 1.263356 -0.526785 -1.850948 -0.049734 -3.300330 -10.812469 -3.521764 4.406937 0.000000 0.000000 0.000000 6.054825 1.688560 -1.028266 5.314676 -36.237152 3.773688 -2.325020 -3.544289 -1.387194 -77.520407 -33.759340 -28.147756 -0.131291 -23.941572 1.520260 0.000000 0.000000 0.000000 5.467791 1.493289 -0.678896 5.381052 28.398911 -19.651450 2.407538 -0.482324 1.556204 -38.249633 30.317017 12.479726 0.826058 39.671812 -0.518672 0.000000 0.000000 0.000000 
4.931954 100.122017 1.503315 0.000000 0.000000 0.000000 8.174786 -11.670769 1.551880 -50.600080 5.892915 18.948027 38.272569 5.283706 5.531383 5.749706 -0.462857 -16.966373 0.069982 0.532345 -0.492391 0.000000 0.000000 0.000000 7.534703 -11.736264 1.776398 -28.322790 -3.051609 -30.081796 31.774282 -1.165444 -1.457599 -6.653192 -5.222542 29.373939 -0.835042 0.570151 -0.084166 0.000000 0.000000 0.000000 9.136362 -10.471273 1.244959 8.081577 2.773130 -2.112136 6.218892 1.362461 -1.254308 0.539574 2.203041 0.315826 0.000000 0.000000 0.000000 6.279104 1.017220 -0.571188 -2.591151 -0.324503 -2.623608 -11.115624 -3.700960 4.868085 0.000000 0.000000 0.000000 5.917398 1.505421 -1.125339 5.198628 -36.557754 3.987754 -0.890568 -3.798342 -0.835056 -76.763656 -33.847996 -26.848910 -0.191507 -23.654031 1.648069 0.000000 0.000000 0.000000 5.552026 1.386895 -0.766539 5.034452 28.746354 -19.534650 2.758645 -1.196012 1.532539 -40.748215 28.325677 13.858532 0.751852 41.135357 -0.338444 0.000000 0.000000 0.000000 
5.130169 99.789429 1.691170 0.000000 0.000000 0.000000 8.377942 -11.321063 1.284846 -51.424846 5.878963 19.119815 38.964457 5.176350 5.496147 5.242593 -0.664944 -16.692680 0.068307 0.523953 -0.497814 0.000000 0.000000 0.000000 7.722115 -11.365293 1.484586 -28.415837 -3.089226 -30.080071 32.012994 -1.227795 -1.524858 -6.889687 -5.562841 29.274044 -0.640949 0.580219 -0.063525 0.000000 0.000000 0.000000 9.508415 -10.478393 1.030365 8.145760 2.585060 -2.031716 6.235597 1.180756 -1.243558 0.737638 2.095477 0.265234 0.000000 0.000000 0.000000 6.145718 0.849044 -0.614688 -3.560633 -0.701769 -1.759868 -11.376758 -3.753315 5.252211 0.000000 0.000000 0.000000 5.956019 1.326199 -1.201049 4.959666 -36.535068 3.857908 0.090608 -3.768413 -0.400283 -76.160277 -34.106133 -26.456506 -0.500540 -22.760057 1.481704 0.000000 0.000000 0.000000 5.745166 1.382330 -0.802747 4.505555 28.628328 -18.805010 2.807343 -1.449715 1.259180 -42.782819 27.285586 15.525959 0.730865 41.243489 -0.268510 0.000000 0.000000 0.000000 
5.295843 99.452454 1.861839 0.000000 0.000000 0.000000 8.452899 -11.068443 0.995698 -52.002239 5.906202 19.330837 39.497768 5.111203 5.520577 4.743227 -0.750489 -16.408459 -0.039474 0.521836 -0.499796 0.000000 0.000000 0.000000 7.860331 -11.010986 1.178797 -28.417881 -3.128753 -30.083510 32.118401 -1.325442 -1.597011 -7.115770 -5.845404 29.157036 -0.456761 0.576529 -0.007065 0.000000 0.000000 0.000000 9.712240 -10.508471 0.834521 8.214768 2.472599 -1.857714 6.308357 1.135027 -1.202893 0.932590 1.991781 0.166194 0.000000 0.000000 0.000000 6.043066 0.804947 -0.658206 -4.651012 -1.127103 -1.001846 -11.528698 -3.686618 5.522592 0.000000 0.000000 0.000000 6.139057 1.199775 -1.239613 4.690305 -36.241694 3.669607 0.497674 -3.375685 -0.297113 -76.001468 -34.896181 -26.774060 -0.913959 -21.667151 1.126755 0.000000 0.000000 0.000000 6.018147 1.462373 -0.793917 3.982433 28.212721 -17.904690 2.533523 -1.337849 0.767121 -43.654341 27.614364 16.845263 0.862397 39.857986 -0.403766 0.000000 0.000000 0.000000 
5.458816 99.170708 1.992737 0.000000 0.000000 0.000000 8.414288 -10.947565 0.730876 -52.318474 5.966575 19.552209 39.869826 5.058681 5.579365 4.328535 -0.784662 -16.181942 -0.193923 0.525772 -0.492474 0.000000 0.000000 0.000000 7.897481 -10.805305 0.907423 -28.345534 -3.176065 -30.100179 32.010819 -1.423071 -1.667196 -7.282506 -5.993868 29.124381 -0.323644 0.564678 0.061958 0.000000 0.000000 0.000000 9.719744 -10.573094 0.690681 8.269343 2.444420 -1.654981 6.398681 1.229764 -1.169421 1.022024 1.968214 -0.054909 0.000000 0.000000 0.000000 5.983476 0.876534 -0.701152 -5.725844 -1.486656 -0.609817 -11.514396 -3.508711 5.640382 0.000000 0.000000 0.000000 6.373994 1.171581 -1.231654 4.446401 -35.841827 3.580192 0.709942 -2.890201 -0.491302 -75.962782 -35.970949 -27.338129 -1.302054 -21.233274 0.755414 0.000000 0.000000 0.000000 6.275966 1.580298 -0.784704 3.600200 27.622528 -17.188019 2.116698 -1.119366 0.278057 -43.285135 28.897779 17.698728 1.095109 37.933095 -0.699479 0.000000 0.000000 0.000000 
